<?xml version="1.0" encoding="utf-8"?>
<!-- Generator: Adobe Illustrator 19.2.1, SVG Export Plug-In . SVG Version: 6.00 Build 0)  -->
<svg version="1.1" id="Layer_1" xmlns="http://www.w3.org/2000/svg" xmlns:xlink="http://www.w3.org/1999/xlink" x="0px" y="0px"
	 viewBox="0 0 24 48" style="enable-background:new 0 0 24 48;" xml:space="preserve">
<style type="text/css">
	.st0{fill:#CCCCCC;}
	.st1{fill:#3FA9F5;}
</style>
<g>
	<path class="st0" d="M12,6c3.3,0,6,2.7,6,6c0,3.3-2.7,6-6,6c-3.3,0-6-2.7-6-6C6,8.7,8.7,6,12,6 M12,4L12,4c-4.4,0-8,3.6-8,8v0
		c0,4.4,3.6,8,8,8h0c4.4,0,8-3.6,8-8v0C20,7.6,16.4,4,12,4L12,4z"/>
</g>
<g>
	<path class="st1" d="M12,41L12,41c-2.8,0-5-2.3-5-5v0c0-2.8,2.3-5,5-5h0c2.8,0,5,2.3,5,5v0C17,38.8,14.8,41,12,41z"/>
</g>
<g>
	<path class="st0" d="M12,30c3.3,0,6,2.7,6,6c0,3.3-2.7,6-6,6c-3.3,0-6-2.7-6-6C6,32.7,8.7,30,12,30 M12,28L12,28c-4.4,0-8,3.6-8,8
		v0c0,4.4,3.6,8,8,8h0c4.4,0,8-3.6,8-8v0C20,31.6,16.4,28,12,28L12,28z"/>
</g>
</svg>
